<mxfile host="app.diagrams.net" agent="Mozilla/5.0 (Windows NT 10.0; Win64; x64) AppleWebKit/537.36 (KHTML, like Gecko) Chrome/133.0.0.0 Safari/537.36" version="26.1.0">
  <diagram name="Страница — 1" id="4ONLXeYDoJSiK7BkjL6L">
    <mxGraphModel dx="1313" dy="718" grid="1" gridSize="10" guides="1" tooltips="1" connect="1" arrows="1" fold="1" page="1" pageScale="1" pageWidth="827" pageHeight="1169" math="0" shadow="0">
      <root>
        <mxCell id="0" />
        <mxCell id="1" parent="0" />
        <mxCell id="oEtxkMDLs63_Jpe29l2L-1" value="" style="ellipse;whiteSpace=wrap;html=1;aspect=fixed;fillColor=#000000;" vertex="1" parent="1">
          <mxGeometry x="384" y="10" width="30" height="30" as="geometry" />
        </mxCell>
        <mxCell id="oEtxkMDLs63_Jpe29l2L-2" value="" style="rhombus;whiteSpace=wrap;html=1;" vertex="1" parent="1">
          <mxGeometry x="344" y="60" width="110" height="60" as="geometry" />
        </mxCell>
        <mxCell id="oEtxkMDLs63_Jpe29l2L-4" value="пользователь" style="rhombus;whiteSpace=wrap;html=1;" vertex="1" parent="1">
          <mxGeometry x="20" y="55" width="110" height="70" as="geometry" />
        </mxCell>
        <mxCell id="oEtxkMDLs63_Jpe29l2L-5" value="администратор" style="rhombus;whiteSpace=wrap;html=1;" vertex="1" parent="1">
          <mxGeometry x="700" y="55" width="110" height="70" as="geometry" />
        </mxCell>
        <mxCell id="oEtxkMDLs63_Jpe29l2L-9" value="" style="endArrow=classic;html=1;rounded=0;exitX=0;exitY=0.5;exitDx=0;exitDy=0;entryX=1;entryY=0.5;entryDx=0;entryDy=0;" edge="1" parent="1" source="oEtxkMDLs63_Jpe29l2L-2" target="oEtxkMDLs63_Jpe29l2L-4">
          <mxGeometry width="50" height="50" relative="1" as="geometry">
            <mxPoint x="370" y="350" as="sourcePoint" />
            <mxPoint x="420" y="300" as="targetPoint" />
          </mxGeometry>
        </mxCell>
        <mxCell id="oEtxkMDLs63_Jpe29l2L-10" value="" style="endArrow=classic;html=1;rounded=0;entryX=0;entryY=0.5;entryDx=0;entryDy=0;exitX=1;exitY=0.5;exitDx=0;exitDy=0;" edge="1" parent="1" source="oEtxkMDLs63_Jpe29l2L-2" target="oEtxkMDLs63_Jpe29l2L-5">
          <mxGeometry width="50" height="50" relative="1" as="geometry">
            <mxPoint x="370" y="350" as="sourcePoint" />
            <mxPoint x="420" y="300" as="targetPoint" />
          </mxGeometry>
        </mxCell>
        <mxCell id="oEtxkMDLs63_Jpe29l2L-14" value="" style="endArrow=none;html=1;rounded=0;" edge="1" parent="1">
          <mxGeometry width="50" height="50" relative="1" as="geometry">
            <mxPoint x="10" y="400" as="sourcePoint" />
            <mxPoint x="330" y="400" as="targetPoint" />
          </mxGeometry>
        </mxCell>
        <mxCell id="oEtxkMDLs63_Jpe29l2L-15" value="" style="endArrow=none;html=1;rounded=0;" edge="1" parent="1">
          <mxGeometry width="50" height="50" relative="1" as="geometry">
            <mxPoint x="470" y="400" as="sourcePoint" />
            <mxPoint x="820" y="400" as="targetPoint" />
          </mxGeometry>
        </mxCell>
        <mxCell id="oEtxkMDLs63_Jpe29l2L-18" value="Ввод данных счетчиков" style="rounded=1;whiteSpace=wrap;html=1;" vertex="1" parent="1">
          <mxGeometry x="10" y="470" width="80" height="60" as="geometry" />
        </mxCell>
        <mxCell id="oEtxkMDLs63_Jpe29l2L-19" value="Расчет квартплаты" style="rounded=1;whiteSpace=wrap;html=1;" vertex="1" parent="1">
          <mxGeometry x="120" y="470" width="80" height="60" as="geometry" />
        </mxCell>
        <mxCell id="oEtxkMDLs63_Jpe29l2L-20" value="Изменить формулу расчета кварплаты" style="rounded=1;whiteSpace=wrap;html=1;" vertex="1" parent="1">
          <mxGeometry x="740" y="470" width="80" height="60" as="geometry" />
        </mxCell>
        <mxCell id="oEtxkMDLs63_Jpe29l2L-21" value="Изменить информацию пользователя" style="rounded=1;whiteSpace=wrap;html=1;" vertex="1" parent="1">
          <mxGeometry x="650" y="470" width="80" height="60" as="geometry" />
        </mxCell>
        <mxCell id="oEtxkMDLs63_Jpe29l2L-22" value="Добавить пользователя" style="rounded=1;whiteSpace=wrap;html=1;" vertex="1" parent="1">
          <mxGeometry x="560" y="470" width="80" height="60" as="geometry" />
        </mxCell>
        <mxCell id="oEtxkMDLs63_Jpe29l2L-23" value="Удалить пользователя" style="rounded=1;whiteSpace=wrap;html=1;" vertex="1" parent="1">
          <mxGeometry x="470" y="470" width="80" height="60" as="geometry" />
        </mxCell>
        <mxCell id="oEtxkMDLs63_Jpe29l2L-24" value="Сохранение данных в БД" style="rounded=1;whiteSpace=wrap;html=1;" vertex="1" parent="1">
          <mxGeometry x="120" y="555" width="80" height="60" as="geometry" />
        </mxCell>
        <mxCell id="oEtxkMDLs63_Jpe29l2L-26" value="Сохранение данных в БД" style="rounded=1;whiteSpace=wrap;html=1;" vertex="1" parent="1">
          <mxGeometry x="10" y="555" width="80" height="60" as="geometry" />
        </mxCell>
        <mxCell id="oEtxkMDLs63_Jpe29l2L-27" value="Сохранение измененной записи в БД" style="rounded=1;whiteSpace=wrap;html=1;" vertex="1" parent="1">
          <mxGeometry x="470" y="555" width="80" height="60" as="geometry" />
        </mxCell>
        <mxCell id="oEtxkMDLs63_Jpe29l2L-28" value="Сохранение измененной записи в БД" style="rounded=1;whiteSpace=wrap;html=1;" vertex="1" parent="1">
          <mxGeometry x="650" y="555" width="80" height="60" as="geometry" />
        </mxCell>
        <mxCell id="oEtxkMDLs63_Jpe29l2L-29" value="Сохранение измененной записи в БД" style="rounded=1;whiteSpace=wrap;html=1;" vertex="1" parent="1">
          <mxGeometry x="740" y="555" width="80" height="60" as="geometry" />
        </mxCell>
        <mxCell id="oEtxkMDLs63_Jpe29l2L-30" value="Добавление новой записи в БД" style="rounded=1;whiteSpace=wrap;html=1;" vertex="1" parent="1">
          <mxGeometry x="560" y="555" width="80" height="60" as="geometry" />
        </mxCell>
        <mxCell id="oEtxkMDLs63_Jpe29l2L-31" value="" style="endArrow=classic;html=1;rounded=0;exitX=0.5;exitY=1;exitDx=0;exitDy=0;" edge="1" parent="1" source="oEtxkMDLs63_Jpe29l2L-4">
          <mxGeometry width="50" height="50" relative="1" as="geometry">
            <mxPoint x="370" y="440" as="sourcePoint" />
            <mxPoint x="75" y="400" as="targetPoint" />
          </mxGeometry>
        </mxCell>
        <mxCell id="oEtxkMDLs63_Jpe29l2L-32" value="" style="endArrow=classic;html=1;rounded=0;exitX=0.5;exitY=1;exitDx=0;exitDy=0;" edge="1" parent="1">
          <mxGeometry width="50" height="50" relative="1" as="geometry">
            <mxPoint x="755" y="260.0000000000001" as="sourcePoint" />
            <mxPoint x="754.5" y="400" as="targetPoint" />
          </mxGeometry>
        </mxCell>
        <mxCell id="oEtxkMDLs63_Jpe29l2L-33" value="" style="endArrow=classic;html=1;rounded=0;entryX=0.5;entryY=0;entryDx=0;entryDy=0;" edge="1" parent="1">
          <mxGeometry width="50" height="50" relative="1" as="geometry">
            <mxPoint x="50" y="400" as="sourcePoint" />
            <mxPoint x="50" y="470" as="targetPoint" />
          </mxGeometry>
        </mxCell>
        <mxCell id="oEtxkMDLs63_Jpe29l2L-34" value="" style="endArrow=classic;html=1;rounded=0;entryX=0.5;entryY=0;entryDx=0;entryDy=0;" edge="1" parent="1">
          <mxGeometry width="50" height="50" relative="1" as="geometry">
            <mxPoint x="159.5" y="400" as="sourcePoint" />
            <mxPoint x="159.5" y="470" as="targetPoint" />
          </mxGeometry>
        </mxCell>
        <mxCell id="oEtxkMDLs63_Jpe29l2L-35" value="" style="endArrow=classic;html=1;rounded=0;entryX=0.5;entryY=0;entryDx=0;entryDy=0;" edge="1" parent="1">
          <mxGeometry width="50" height="50" relative="1" as="geometry">
            <mxPoint x="50" y="530" as="sourcePoint" />
            <mxPoint x="49.75999999999999" y="555" as="targetPoint" />
          </mxGeometry>
        </mxCell>
        <mxCell id="oEtxkMDLs63_Jpe29l2L-36" value="" style="endArrow=classic;html=1;rounded=0;entryX=0.5;entryY=0;entryDx=0;entryDy=0;" edge="1" parent="1">
          <mxGeometry width="50" height="50" relative="1" as="geometry">
            <mxPoint x="509.5" y="400" as="sourcePoint" />
            <mxPoint x="509.5" y="470" as="targetPoint" />
          </mxGeometry>
        </mxCell>
        <mxCell id="oEtxkMDLs63_Jpe29l2L-37" value="" style="endArrow=classic;html=1;rounded=0;entryX=0.5;entryY=0;entryDx=0;entryDy=0;" edge="1" parent="1">
          <mxGeometry width="50" height="50" relative="1" as="geometry">
            <mxPoint x="599.5" y="400" as="sourcePoint" />
            <mxPoint x="599.5" y="470" as="targetPoint" />
          </mxGeometry>
        </mxCell>
        <mxCell id="oEtxkMDLs63_Jpe29l2L-38" value="" style="endArrow=classic;html=1;rounded=0;entryX=0.5;entryY=0;entryDx=0;entryDy=0;" edge="1" parent="1">
          <mxGeometry width="50" height="50" relative="1" as="geometry">
            <mxPoint x="689.5" y="400" as="sourcePoint" />
            <mxPoint x="689.5" y="470" as="targetPoint" />
          </mxGeometry>
        </mxCell>
        <mxCell id="oEtxkMDLs63_Jpe29l2L-39" value="" style="endArrow=classic;html=1;rounded=0;entryX=0.5;entryY=0;entryDx=0;entryDy=0;" edge="1" parent="1">
          <mxGeometry width="50" height="50" relative="1" as="geometry">
            <mxPoint x="779.5" y="400" as="sourcePoint" />
            <mxPoint x="779.5" y="470" as="targetPoint" />
          </mxGeometry>
        </mxCell>
        <mxCell id="oEtxkMDLs63_Jpe29l2L-41" value="" style="endArrow=classic;html=1;rounded=0;entryX=0.5;entryY=0;entryDx=0;entryDy=0;" edge="1" parent="1">
          <mxGeometry width="50" height="50" relative="1" as="geometry">
            <mxPoint x="159.74" y="530" as="sourcePoint" />
            <mxPoint x="160.24" y="555" as="targetPoint" />
          </mxGeometry>
        </mxCell>
        <mxCell id="oEtxkMDLs63_Jpe29l2L-42" value="" style="endArrow=classic;html=1;rounded=0;entryX=0.5;entryY=0;entryDx=0;entryDy=0;" edge="1" parent="1">
          <mxGeometry width="50" height="50" relative="1" as="geometry">
            <mxPoint x="509.75" y="530" as="sourcePoint" />
            <mxPoint x="510.25" y="555" as="targetPoint" />
          </mxGeometry>
        </mxCell>
        <mxCell id="oEtxkMDLs63_Jpe29l2L-43" value="" style="endArrow=classic;html=1;rounded=0;entryX=0.5;entryY=0;entryDx=0;entryDy=0;" edge="1" parent="1">
          <mxGeometry width="50" height="50" relative="1" as="geometry">
            <mxPoint x="599.75" y="530" as="sourcePoint" />
            <mxPoint x="600.25" y="555" as="targetPoint" />
          </mxGeometry>
        </mxCell>
        <mxCell id="oEtxkMDLs63_Jpe29l2L-44" value="" style="endArrow=classic;html=1;rounded=0;entryX=0.5;entryY=0;entryDx=0;entryDy=0;" edge="1" parent="1">
          <mxGeometry width="50" height="50" relative="1" as="geometry">
            <mxPoint x="689.75" y="530" as="sourcePoint" />
            <mxPoint x="690.25" y="555" as="targetPoint" />
          </mxGeometry>
        </mxCell>
        <mxCell id="oEtxkMDLs63_Jpe29l2L-45" value="" style="endArrow=classic;html=1;rounded=0;entryX=0.5;entryY=0;entryDx=0;entryDy=0;" edge="1" parent="1">
          <mxGeometry width="50" height="50" relative="1" as="geometry">
            <mxPoint x="779.75" y="530" as="sourcePoint" />
            <mxPoint x="780.25" y="555" as="targetPoint" />
          </mxGeometry>
        </mxCell>
        <mxCell id="oEtxkMDLs63_Jpe29l2L-51" value="" style="endArrow=none;html=1;rounded=0;" edge="1" parent="1">
          <mxGeometry width="50" height="50" relative="1" as="geometry">
            <mxPoint x="10" y="660" as="sourcePoint" />
            <mxPoint x="330" y="660" as="targetPoint" />
          </mxGeometry>
        </mxCell>
        <mxCell id="oEtxkMDLs63_Jpe29l2L-53" value="" style="endArrow=none;html=1;rounded=0;" edge="1" parent="1">
          <mxGeometry width="50" height="50" relative="1" as="geometry">
            <mxPoint x="470" y="650" as="sourcePoint" />
            <mxPoint x="820" y="650" as="targetPoint" />
          </mxGeometry>
        </mxCell>
        <mxCell id="oEtxkMDLs63_Jpe29l2L-59" value="" style="endArrow=classic;html=1;rounded=0;exitX=0.5;exitY=1;exitDx=0;exitDy=0;" edge="1" parent="1">
          <mxGeometry width="50" height="50" relative="1" as="geometry">
            <mxPoint x="754.5" y="125" as="sourcePoint" />
            <mxPoint x="754.8571428571431" y="200.0000000000001" as="targetPoint" />
          </mxGeometry>
        </mxCell>
      </root>
    </mxGraphModel>
  </diagram>
</mxfile>
